<?xml version="1.0" encoding="UTF-8" standalone="no"?>
<!DOCTYPE svg PUBLIC "-//W3C//DTD SVG 1.1//EN" "http://www.w3.org/Graphics/SVG/1.1/DTD/svg11.dtd">
<svg version="1.1" xmlns="http://www.w3.org/2000/svg" xmlns:xlink="http://www.w3.org/1999/xlink" preserveAspectRatio="xMidYMid meet" viewBox="0 0 640 640" width="40" height="40"><defs><path d="M338.79 0.65L348 1.51L357.19 2.72L366.33 4.28L375.41 6.2L384.43 8.47L393.38 11.1L402.23 14.08L410.99 17.42L419.64 21.11L428.17 25.16L436.57 29.56L444.83 34.32L452.93 39.43L460.87 44.9L468.64 50.73L476.22 56.91L483.61 63.45L490.79 70.34L497.68 77.52L504.22 84.91L510.41 92.49L516.23 100.25L521.71 108.19L526.83 116.29L531.59 124.54L536 132.94L540.05 141.46L543.75 150.1L547.09 158.85L550.08 167.7L552.72 176.64L555 185.65L556.93 194.73L558.5 203.86L559.72 213.03L560.58 222.24L561.09 231.47L561.25 240.71L561.05 249.95L560.5 259.17L559.6 268.38L558.34 277.56L556.73 286.69L554.77 295.76L552.45 304.77L549.79 313.71L546.76 322.56L543.39 331.31L539.66 339.95L535.58 348.48L531.15 356.87L526.37 365.12L521.23 373.22L515.74 381.16L509.9 388.93L503.71 396.51L497.16 403.89L490.27 411.07L319.52 581.82L149.15 412.42L142.25 405.24L135.71 397.85L129.53 390.26L123.7 382.49L118.23 374.54L113.12 366.43L108.36 358.17L103.95 349.76L99.9 341.22L96.21 332.56L92.87 323.8L89.88 314.93L87.25 305.97L84.97 296.94L83.05 287.85L81.48 278.7L80.27 269.5L79.41 260.27L78.91 251.02L78.75 241.76L78.96 232.5L79.51 223.25L80.42 214.02L81.68 204.83L83.3 195.68L85.27 186.58L87.59 177.55L90.26 168.59L93.29 159.73L96.67 150.96L100.4 142.3L104.48 133.76L108.92 125.36L113.7 117.09L118.84 108.98L124.34 101.03L130.18 93.26L136.37 85.68L142.92 78.29L149.82 71.11L156.99 64.21L164.38 57.67L171.96 51.47L179.73 45.63L187.67 40.13L195.78 34.99L204.04 30.2L212.44 25.77L220.97 21.68L229.61 17.95L238.37 14.56L247.23 11.54L256.17 8.86L265.19 6.53L274.28 4.56L283.42 2.94L292.6 1.68L301.82 0.77L311.05 0.21L320.3 0L329.55 0.15L338.79 0.65ZM308.26 95.24L302.4 95.84L296.61 96.66L290.89 97.71L285.26 98.98L279.71 100.47L274.25 102.17L268.89 104.07L263.62 106.18L258.46 108.48L253.41 110.98L248.47 113.66L243.65 116.53L238.95 119.57L234.37 122.79L229.93 126.18L225.63 129.73L221.47 133.44L217.45 137.31L213.58 141.33L209.87 145.49L206.32 149.8L202.93 154.24L199.71 158.81L196.66 163.51L193.8 168.33L191.11 173.27L188.62 178.33L186.31 183.49L184.21 188.75L182.3 194.12L180.61 199.58L179.12 205.12L177.85 210.76L176.8 216.47L175.97 222.26L175.38 228.12L175.02 234.05L174.9 240.03L175.02 246.02L175.38 251.95L175.97 257.81L176.8 263.6L177.85 269.31L179.12 274.94L180.61 280.49L182.3 285.95L184.21 291.31L186.31 296.58L188.62 301.74L191.11 306.79L193.8 311.73L196.66 316.56L199.71 321.26L202.93 325.83L206.32 330.27L209.87 334.58L213.58 338.74L217.45 342.76L221.47 346.62L225.63 350.34L229.93 353.89L234.37 357.28L238.95 360.5L243.65 363.54L248.47 366.41L253.41 369.09L258.46 371.59L263.62 373.89L268.89 376L274.25 377.9L279.71 379.6L285.26 381.09L290.89 382.36L296.61 383.41L302.4 384.23L308.26 384.83L314.18 385.19L320.17 385.31L326.16 385.19L332.09 384.83L337.95 384.23L343.74 383.41L349.45 382.36L355.08 381.09L360.63 379.6L366.09 377.9L371.45 376L376.72 373.89L381.88 371.59L386.93 369.09L391.87 366.41L396.69 363.54L401.39 360.5L405.97 357.28L410.41 353.89L414.71 350.34L418.88 346.62L422.89 342.76L426.76 338.74L430.47 334.58L434.02 330.27L437.41 325.83L440.63 321.26L443.68 316.56L446.54 311.73L449.23 306.79L451.72 301.74L454.02 296.58L456.13 291.31L458.03 285.95L459.73 280.49L461.22 274.94L462.49 269.31L463.54 263.6L464.36 257.81L464.96 251.95L465.32 246.02L465.44 240.03L465.32 234.05L464.96 228.12L464.36 222.26L463.54 216.47L462.49 210.76L461.22 205.12L459.73 199.58L458.03 194.12L456.13 188.75L454.02 183.49L451.72 178.33L449.23 173.27L446.54 168.33L443.68 163.51L440.63 158.81L437.41 154.24L434.02 149.8L430.47 145.49L426.76 141.33L422.89 137.31L418.88 133.44L414.71 129.73L410.41 126.18L405.97 122.79L401.39 119.57L396.69 116.53L391.87 113.66L386.93 110.98L381.88 108.48L376.72 106.18L371.45 104.07L366.09 102.17L360.63 100.47L355.08 98.98L349.45 97.71L343.74 96.66L337.95 95.84L332.09 95.24L326.16 94.88L320.17 94.76L314.18 94.88L308.26 95.24Z" id="b2UhQhKGQ9"></path><path d="M301.94 240.55L216.57 228.54L224.66 203.87L316.03 197.08C325.83 167.08 331.27 150.42 332.35 147.08C336.01 135.85 341.58 130.25 349.06 130.25C353.41 130.25 357.15 131.53 360.29 134.1C363.42 136.66 364.99 140.08 364.99 144.34C364.99 147.57 364.16 151.74 362.51 156.88C361.44 160.18 356.09 176.72 346.45 206.48L417.34 266.4L409.24 291.07L332.23 250.08L315.38 301.64L333.14 338.71L327.13 357.25L294.11 315.61L242.81 329.83L248.82 311.3L285.37 291.58L301.94 240.55Z" id="b5eD0mTrt"></path></defs><g><g><g><use xlink:href="#b2UhQhKGQ9" opacity="1" fill="#2384d2" fill-opacity="1"></use><g><use xlink:href="#b2UhQhKGQ9" opacity="1" fill-opacity="0" stroke="#000000" stroke-width="1" stroke-opacity="0"></use></g></g><g><use xlink:href="#b5eD0mTrt" opacity="1" fill="#114b93" fill-opacity="1"></use><g><use xlink:href="#b5eD0mTrt" opacity="1" fill-opacity="0" stroke="#000000" stroke-width="1" stroke-opacity="0"></use></g></g></g></g></svg>