<svg height="76" viewBox="0 0 76 76" width="76" xmlns="http://www.w3.org/2000/svg" xmlns:xlink="http://www.w3.org/1999/xlink"><clipPath id="a"><rect height="29.391" rx="10" width="58.353" x="416" y="184"/></clipPath><circle cx="38" cy="38" fill="#272087" r="38"/><g clip-path="url(#a)" transform="translate(-407 -161)"><path d="m41.287 122.245a1.068 1.068 0 0 0 -.824-.392h-4.042c-1-2.631-2.3-5.208-3.774-6.181-5.109-3.361-18.661-3.361-23.771 0-1.478.974-2.772 3.555-3.775 6.181h-4.041a1.064 1.064 0 0 0 -1.041 1.279l.6 2.9a1.063 1.063 0 0 0 1.041.847h1.2a7.18 7.18 0 0 0 -1.724 4.692 7.029 7.029 0 0 0 2.221 5.278c.016.014.032.023.047.037v4.059a1.6 1.6 0 0 0 1.596 1.597h3.723a1.6 1.6 0 0 0 1.595-1.595v-1.631h20.882v1.631a1.6 1.6 0 0 0 1.595 1.595h3.728a1.6 1.6 0 0 0 1.595-1.595v-3.979a7.3 7.3 0 0 0 .466-10.09h1.277a1.059 1.059 0 0 0 1.041-.849l.6-2.9a1.072 1.072 0 0 0 -.215-.884zm-30.659-3.91c4.073-2.681 16.193-2.681 20.264 0 .791.519 1.809 2.617 2.741 5.186h-25.744c.93-2.568 1.948-4.665 2.739-5.186zm-4.77 13.637a3.138 3.138 0 1 1 3.142 3.138 3.137 3.137 0 0 1 -3.142-3.138zm26.71 3.138a3.137 3.137 0 1 1 3.138-3.138 3.138 3.138 0 0 1 -3.139 3.138z" fill="#fff" transform="translate(424.415 70.849)"/></g></svg>